<?xml version="1.0" encoding="UTF-8" standalone="no"?>
<!-- Created with Inkscape (http://www.inkscape.org/) -->

<svg
   width="46mm"
   height="30mm"
   viewBox="0 0 46 30"
   version="1.1"
   id="svg1"
   inkscape:version="1.3.2 (091e20ef0f, 2023-11-25)"
   sodipodi:docname="network-connecting.svg"
   inkscape:export-filename="test5.png"
   inkscape:export-xdpi="150"
   inkscape:export-ydpi="150"
   xmlns:inkscape="http://www.inkscape.org/namespaces/inkscape"
   xmlns:sodipodi="http://sodipodi.sourceforge.net/DTD/sodipodi-0.dtd"
   xmlns="http://www.w3.org/2000/svg"
   xmlns:svg="http://www.w3.org/2000/svg">
  <sodipodi:namedview
     id="namedview1"
     pagecolor="#ffffff"
     bordercolor="#000000"
     borderopacity="0.25"
     inkscape:showpageshadow="2"
     inkscape:pageopacity="0.0"
     inkscape:pagecheckerboard="true"
     inkscape:deskcolor="#d1d1d1"
     inkscape:document-units="mm"
     inkscape:zoom="4"
     inkscape:cx="84"
     inkscape:cy="54"
     inkscape:window-width="1440"
     inkscape:window-height="862"
     inkscape:window-x="0"
     inkscape:window-y="0"
     inkscape:window-maximized="1"
     inkscape:current-layer="layer1"
     inkscape:export-bgcolor="#ffffffff"
     showguides="true" />
  <defs
     id="defs1">
    <inkscape:path-effect
       effect="fillet_chamfer"
       id="path-effect36"
       is_visible="true"
       lpeversion="1"
       nodesatellites_param="F,0,0,1,0,2.017789,0,1 @ F,0,1,1,0,0.63046334,0,1 @ F,0,0,1,0,2.017789,0,1 @ F,0,0,1,0,2.017789,0,1 @ F,0,1,1,0,0.63046334,0,1 @ F,0,0,1,0,2.017789,0,1 @ F,0,0,1,0,2.017789,0,1 @ F,0,1,1,0,0.63046334,0,1 @ F,0,0,1,0,2.017789,0,1 @ F,0,0,1,0,2.017789,0,1 @ F,0,0,1,0,0.63046334,0,1 @ F,0,0,1,0,2.017789,0,1"
       radius="0"
       unit="px"
       method="auto"
       mode="F"
       chamfer_steps="1"
       flexible="false"
       use_knot_distance="true"
       apply_no_radius="true"
       apply_with_radius="true"
       only_selected="false"
       hide_knots="false" />
    <inkscape:path-effect
       effect="fillet_chamfer"
       id="path-effect35"
       is_visible="true"
       lpeversion="1"
       nodesatellites_param="F,0,0,1,0,3.1565814,0,1 @ F,0,0,1,0,1.4148464,0,1 @ F,0,0,1,0,2.5466688,0,1 @ F,0,0,1,0,2.1995602,0,1"
       radius="0"
       unit="px"
       method="auto"
       mode="F"
       chamfer_steps="1"
       flexible="false"
       use_knot_distance="true"
       apply_no_radius="true"
       apply_with_radius="true"
       only_selected="false"
       hide_knots="false" />
    <inkscape:path-effect
       effect="fillet_chamfer"
       id="path-effect32"
       is_visible="true"
       lpeversion="1"
       nodesatellites_param="F,0,0,1,0,0,0,1 @ F,0,0,1,0,0,0,1 @ F,0,0,1,0,0,0,1 @ F,0,0,1,0,0,0,1 @ F,0,0,1,0,0,0,1 @ F,0,0,1,0,0,0,1 @ F,0,0,1,0,0,0,1 @ F,0,0,1,0,0,0,1 @ F,0,0,1,0,0,0,1 | F,0,0,1,0,0,0,1 @ F,0,0,1,0,0,0,1 @ F,0,0,1,0,0,0,1 @ F,0,0,1,0,0,0,1 @ F,0,0,1,0,0,0,1 @ F,0,0,1,0,0,0,1 @ F,0,0,1,0,0,0,1 @ F,0,0,1,0,0,0,1 @ F,0,0,1,0,0,0,1 | F,0,0,1,0,0,0,1 @ F,0,0,1,0,0,0,1 @ F,0,0,1,0,1.9107102,0,1 @ F,0,0,1,0,1.7623213,0,1 @ F,0,0,1,0,0,0,1 @ F,0,0,1,0,0,0,1 @ F,0,0,1,0,0,0,1 | F,0,0,1,0,1.9692357,0,1 @ F,0,0,1,0,0,0,1 @ F,0,0,1,0,0,0,1 @ F,0,0,1,0,0,0,1 @ F,0,0,1,0,0,0,1 @ F,0,0,1,0,1.7032552,0,1"
       radius="0"
       unit="px"
       method="auto"
       mode="F"
       chamfer_steps="1"
       flexible="false"
       use_knot_distance="true"
       apply_no_radius="true"
       apply_with_radius="true"
       only_selected="false"
       hide_knots="false" />
    <inkscape:path-effect
       effect="fillet_chamfer"
       id="path-effect30"
       is_visible="true"
       lpeversion="1"
       nodesatellites_param="F,0,0,1,0,0,0,1 @ F,0,0,1,0,0,0,1 @ F,0,0,1,0,0,0,1 @ F,0,0,1,0,0,0,1 @ F,0,0,1,0,0,0,1 @ F,0,0,1,0,0,0,1 @ F,0,0,1,0,0,0,1 @ F,0,0,1,0,0,0,1 @ F,0,0,1,0,0,0,1 | F,0,0,1,0,0,0,1 @ F,0,0,1,0,0,0,1 @ F,0,0,1,0,0,0,1 @ F,0,0,1,0,0,0,1 @ F,0,0,1,0,0,0,1 @ F,0,0,1,0,0,0,1 @ F,0,0,1,0,0,0,1 @ F,0,0,1,0,0,0,1 @ F,0,0,1,0,0,0,1 | F,0,0,1,0,0,0,1 @ F,0,0,1,0,0,0,1 @ F,0,0,1,0,1.9107102,0,1 @ F,0,0,1,0,1.7623213,0,1 @ F,0,0,1,0,0,0,1 @ F,0,0,1,0,0,0,1 @ F,0,0,1,0,0,0,1 | F,0,0,1,0,1.9692357,0,1 @ F,0,0,1,0,0,0,1 @ F,0,0,1,0,0,0,1 @ F,0,0,1,0,0,0,1 @ F,0,0,1,0,0,0,1 @ F,0,0,1,0,1.7032552,0,1"
       radius="0"
       unit="px"
       method="auto"
       mode="F"
       chamfer_steps="1"
       flexible="false"
       use_knot_distance="true"
       apply_no_radius="true"
       apply_with_radius="true"
       only_selected="false"
       hide_knots="false" />
    <inkscape:path-effect
       effect="fillet_chamfer"
       id="path-effect28"
       is_visible="true"
       lpeversion="1"
       nodesatellites_param="F,0,0,1,0,0,0,1 @ F,0,0,1,0,0,0,1 @ F,0,0,1,0,0,0,1 @ F,0,0,1,0,0,0,1 @ F,0,0,1,0,0,0,1 @ F,0,0,1,0,0,0,1 @ F,0,0,1,0,0,0,1 @ F,0,0,1,0,0,0,1 @ F,0,0,1,0,0,0,1 | F,0,0,1,0,0,0,1 @ F,0,0,1,0,0,0,1 @ F,0,0,1,0,0,0,1 @ F,0,0,1,0,0,0,1 @ F,0,0,1,0,0,0,1 @ F,0,0,1,0,0,0,1 @ F,0,0,1,0,0,0,1 @ F,0,0,1,0,0,0,1 @ F,0,0,1,0,0,0,1 | F,0,0,1,0,0,0,1 @ F,0,0,1,0,0,0,1 @ F,0,0,1,0,1.9107102,0,1 @ F,0,0,1,0,1.7623213,0,1 @ F,0,0,1,0,0,0,1 @ F,0,0,1,0,0,0,1 @ F,0,0,1,0,0,0,1 | F,0,0,1,0,1.9692357,0,1 @ F,0,0,1,0,0,0,1 @ F,0,0,1,0,0,0,1 @ F,0,0,1,0,0,0,1 @ F,0,0,1,0,0,0,1 @ F,0,0,1,0,1.7032552,0,1"
       radius="0"
       unit="px"
       method="auto"
       mode="F"
       chamfer_steps="1"
       flexible="false"
       use_knot_distance="true"
       apply_no_radius="true"
       apply_with_radius="true"
       only_selected="false"
       hide_knots="false" />
    <inkscape:path-effect
       effect="fillet_chamfer"
       id="path-effect26"
       is_visible="true"
       lpeversion="1"
       nodesatellites_param="F,0,0,1,0,0,0,1 @ F,0,0,1,0,0,0,1 @ F,0,0,1,0,0,0,1 @ F,0,0,1,0,0,0,1 @ F,0,0,1,0,0,0,1 @ F,0,0,1,0,0,0,1 @ F,0,0,1,0,0,0,1 @ F,0,0,1,0,0,0,1 @ F,0,0,1,0,0,0,1 | F,0,0,1,0,0,0,1 @ F,0,0,1,0,0,0,1 @ F,0,0,1,0,0,0,1 @ F,0,0,1,0,0,0,1 @ F,0,0,1,0,0,0,1 @ F,0,0,1,0,0,0,1 @ F,0,0,1,0,0,0,1 @ F,0,0,1,0,0,0,1 @ F,0,0,1,0,0,0,1 | F,0,0,1,0,0,0,1 @ F,0,0,1,0,0,0,1 @ F,0,0,1,0,1.9107102,0,1 @ F,0,0,1,0,1.7623213,0,1 @ F,0,0,1,0,0,0,1 @ F,0,0,1,0,0,0,1 @ F,0,0,1,0,0,0,1 | F,0,0,1,0,1.9692357,0,1 @ F,0,0,1,0,0,0,1 @ F,0,0,1,0,0,0,1 @ F,0,0,1,0,0,0,1 @ F,0,0,1,0,0,0,1 @ F,0,0,1,0,1.7032552,0,1"
       radius="0"
       unit="px"
       method="auto"
       mode="F"
       chamfer_steps="1"
       flexible="false"
       use_knot_distance="true"
       apply_no_radius="true"
       apply_with_radius="true"
       only_selected="false"
       hide_knots="false" />
    <inkscape:path-effect
       effect="fillet_chamfer"
       id="path-effect23"
       is_visible="true"
       lpeversion="1"
       nodesatellites_param="F,0,0,1,0,0,0,1 @ F,0,0,1,0,0,0,1 @ F,0,0,1,0,0,0,1 @ F,0,0,1,0,0,0,1 @ F,0,0,1,0,0,0,1 @ F,0,0,1,0,0,0,1 @ F,0,0,1,0,0,0,1 @ F,0,0,1,0,0,0,1 @ F,0,0,1,0,0,0,1 | F,0,0,1,0,0,0,1 @ F,0,0,1,0,0,0,1 @ F,0,0,1,0,0,0,1 @ F,0,0,1,0,0,0,1 @ F,0,0,1,0,0,0,1 @ F,0,0,1,0,0,0,1 @ F,0,0,1,0,0,0,1 @ F,0,0,1,0,0,0,1 @ F,0,0,1,0,0,0,1 | F,0,0,1,0,0,0,1 @ F,0,0,1,0,0,0,1 @ F,0,0,1,0,1.9107102,0,1 @ F,0,0,1,0,1.7623213,0,1 @ F,0,0,1,0,0,0,1 @ F,0,0,1,0,0,0,1 @ F,0,0,1,0,0,0,1 | F,0,0,1,0,1.9692357,0,1 @ F,0,0,1,0,0,0,1 @ F,0,0,1,0,0,0,1 @ F,0,0,1,0,0,0,1 @ F,0,0,1,0,0,0,1 @ F,0,0,1,0,1.7032552,0,1"
       radius="0"
       unit="px"
       method="auto"
       mode="F"
       chamfer_steps="1"
       flexible="false"
       use_knot_distance="true"
       apply_no_radius="true"
       apply_with_radius="true"
       only_selected="false"
       hide_knots="false" />
    <inkscape:path-effect
       effect="fillet_chamfer"
       id="path-effect21"
       is_visible="true"
       lpeversion="1"
       nodesatellites_param="F,0,0,1,0,0,0,1 @ F,0,0,1,0,0,0,1 @ F,0,0,1,0,0,0,1 @ F,0,0,1,0,0,0,1 @ F,0,0,1,0,0,0,1 @ F,0,0,1,0,0,0,1 @ F,0,0,1,0,0,0,1 @ F,0,0,1,0,0,0,1 @ F,0,0,1,0,0,0,1 | F,0,0,1,0,0,0,1 @ F,0,0,1,0,0,0,1 @ F,0,0,1,0,2.4976294,0,1 @ F,0,0,1,0,2.1090653,0,1 @ F,0,0,1,0,0,0,1 @ F,0,0,1,0,0,0,1 @ F,0,0,1,0,0,0,1 | F,0,0,1,0,3.1569389,0,1 @ F,0,0,1,0,0,0,1 @ F,0,0,1,0,0,0,1 @ F,0,0,1,0,0,0,1 @ F,0,0,1,0,0,0,1 @ F,0,0,1,0,2.0826922,0,1"
       radius="0"
       unit="px"
       method="auto"
       mode="F"
       chamfer_steps="1"
       flexible="false"
       use_knot_distance="true"
       apply_no_radius="true"
       apply_with_radius="true"
       only_selected="false"
       hide_knots="false" />
    <inkscape:path-effect
       effect="fillet_chamfer"
       id="path-effect13"
       is_visible="true"
       lpeversion="1"
       nodesatellites_param="F,0,0,1,0,0,0,1 @ F,0,0,1,0,0,0,1 @ F,0,0,1,0,0,0,1 @ F,0,0,1,0,0,0,1 @ F,0,0,1,0,0,0,1 @ F,0,0,1,0,0,0,1 @ F,0,0,1,0,0,0,1 @ F,0,0,1,0,0,0,1 @ F,0,0,1,0,0,0,1 | F,0,0,1,0,0,0,1 @ F,0,0,1,0,0,0,1 @ F,0,0,1,0,2.4976294,0,1 @ F,0,0,1,0,2.1090653,0,1 @ F,0,0,1,0,0,0,1 @ F,0,0,1,0,0,0,1 @ F,0,0,1,0,0,0,1 | F,0,0,1,0,3.1569389,0,1 @ F,0,0,1,0,0,0,1 @ F,0,0,1,0,0,0,1 @ F,0,0,1,0,0,0,1 @ F,0,0,1,0,0,0,1 @ F,0,0,1,0,2.0826922,0,1"
       radius="0"
       unit="px"
       method="auto"
       mode="F"
       chamfer_steps="1"
       flexible="false"
       use_knot_distance="true"
       apply_no_radius="true"
       apply_with_radius="true"
       only_selected="false"
       hide_knots="false" />
    <inkscape:path-effect
       effect="fillet_chamfer"
       id="path-effect11"
       is_visible="true"
       lpeversion="1"
       nodesatellites_param="F,0,0,1,0,3.1390769,0,1 @ F,0,0,1,0,2.1169476,0,1 @ F,0,0,1,0,2.2015844,0,1 @ F,0,0,1,0,2.242917,0,1 | F,0,0,1,0,3.0409824,0,1 @ F,0,0,1,0,1.3663502,0,1 @ F,0,0,1,0,2.4980904,0,1 @ F,0,0,1,0,2.2152193,0,1"
       radius="0"
       unit="px"
       method="auto"
       mode="F"
       chamfer_steps="1"
       flexible="false"
       use_knot_distance="true"
       apply_no_radius="true"
       apply_with_radius="true"
       only_selected="false"
       hide_knots="false" />
    <inkscape:path-effect
       effect="fillet_chamfer"
       id="path-effect7"
       is_visible="true"
       lpeversion="1"
       nodesatellites_param="F,0,0,1,0,3.1390769,0,1 @ F,0,0,1,0,2.1169476,0,1 @ F,0,0,1,0,2.2015844,0,1 @ F,0,0,1,0,2.242917,0,1 | F,0,0,1,0,3.0409824,0,1 @ F,0,0,1,0,1.3663502,0,1 @ F,0,0,1,0,2.4980904,0,1 @ F,0,0,1,0,2.2152193,0,1"
       radius="0"
       unit="px"
       method="auto"
       mode="F"
       chamfer_steps="1"
       flexible="false"
       use_knot_distance="true"
       apply_no_radius="true"
       apply_with_radius="true"
       only_selected="false"
       hide_knots="false" />
    <inkscape:path-effect
       effect="fillet_chamfer"
       id="path-effect2"
       is_visible="true"
       lpeversion="1"
       nodesatellites_param="F,0,0,1,0,3.1565814,0,1 @ F,0,0,1,0,1.4148464,0,1 @ F,0,0,1,0,2.5466688,0,1 @ F,0,0,1,0,2.1995602,0,1"
       radius="0"
       unit="px"
       method="auto"
       mode="F"
       chamfer_steps="1"
       flexible="false"
       use_knot_distance="true"
       apply_no_radius="true"
       apply_with_radius="true"
       only_selected="false"
       hide_knots="false" />
    <inkscape:path-effect
       effect="fillet_chamfer"
       id="path-effect24"
       is_visible="true"
       lpeversion="1"
       nodesatellites_param="F,0,0,1,0,3.1565814,0,1 @ F,0,0,1,0,1.4148464,0,1 @ F,0,0,1,0,2.5466688,0,1 @ F,0,0,1,0,2.1995602,0,1"
       radius="0"
       unit="px"
       method="auto"
       mode="F"
       chamfer_steps="1"
       flexible="false"
       use_knot_distance="true"
       apply_no_radius="true"
       apply_with_radius="true"
       only_selected="false"
       hide_knots="false" />
    <inkscape:path-effect
       effect="fillet_chamfer"
       id="path-effect22"
       is_visible="true"
       lpeversion="1"
       nodesatellites_param="F,0,0,1,0,3.1565814,0,1 @ F,0,0,1,0,1.4148464,0,1 @ F,0,0,1,0,2.5466688,0,1 @ F,0,0,1,0,2.1995602,0,1"
       radius="0"
       unit="px"
       method="auto"
       mode="F"
       chamfer_steps="1"
       flexible="false"
       use_knot_distance="true"
       apply_no_radius="true"
       apply_with_radius="true"
       only_selected="false"
       hide_knots="false" />
    <inkscape:path-effect
       effect="fillet_chamfer"
       id="path-effect18"
       is_visible="true"
       lpeversion="1"
       nodesatellites_param="F,0,0,1,0,3.1565814,0,1 @ F,0,0,1,0,1.4148464,0,1 @ F,0,0,1,0,2.5466688,0,1 @ F,0,0,1,0,2.1995602,0,1"
       radius="0"
       unit="px"
       method="auto"
       mode="F"
       chamfer_steps="1"
       flexible="false"
       use_knot_distance="true"
       apply_no_radius="true"
       apply_with_radius="true"
       only_selected="false"
       hide_knots="false" />
    <inkscape:path-effect
       effect="fillet_chamfer"
       id="path-effect14"
       is_visible="true"
       lpeversion="1"
       nodesatellites_param="F,0,0,1,0,3.1565814,0,1 @ F,0,0,1,0,1.4148464,0,1 @ F,0,0,1,0,2.5466688,0,1 @ F,0,0,1,0,2.1995602,0,1"
       radius="0"
       unit="px"
       method="auto"
       mode="F"
       chamfer_steps="1"
       flexible="false"
       use_knot_distance="true"
       apply_no_radius="true"
       apply_with_radius="true"
       only_selected="false"
       hide_knots="false" />
    <inkscape:path-effect
       effect="fillet_chamfer"
       id="path-effect12"
       is_visible="true"
       lpeversion="1"
       nodesatellites_param="F,0,0,1,0,3.1565814,0,1 @ F,0,0,1,0,1.4148464,0,1 @ F,0,0,1,0,2.5466688,0,1 @ F,0,0,1,0,2.1995602,0,1"
       radius="0"
       unit="px"
       method="auto"
       mode="F"
       chamfer_steps="1"
       flexible="false"
       use_knot_distance="true"
       apply_no_radius="true"
       apply_with_radius="true"
       only_selected="false"
       hide_knots="false" />
    <inkscape:path-effect
       effect="fillet_chamfer"
       id="path-effect9"
       is_visible="true"
       lpeversion="1"
       nodesatellites_param="F,0,0,1,0,0,0,1 @ F,0,0,1,0,0,0,1 @ F,0,0,1,0,0,0,1 @ F,0,0,1,0,0,0,1"
       radius="0"
       unit="px"
       method="auto"
       mode="F"
       chamfer_steps="1"
       flexible="false"
       use_knot_distance="true"
       apply_no_radius="true"
       apply_with_radius="true"
       only_selected="false"
       hide_knots="false" />
    <inkscape:path-effect
       effect="fillet_chamfer"
       id="path-effect6"
       is_visible="true"
       lpeversion="1"
       nodesatellites_param="F,0,0,1,0,3.1565814,0,1 @ F,0,0,1,0,1.4148464,0,1 @ F,0,0,1,0,2.5466688,0,1 @ F,0,0,1,0,2.1995602,0,1"
       radius="0"
       unit="px"
       method="auto"
       mode="F"
       chamfer_steps="1"
       flexible="false"
       use_knot_distance="true"
       apply_no_radius="true"
       apply_with_radius="true"
       only_selected="false"
       hide_knots="false" />
    <inkscape:path-effect
       effect="fillet_chamfer"
       id="path-effect3"
       is_visible="true"
       lpeversion="1"
       nodesatellites_param="F,0,0,1,0,2.7861142,0,1 @ F,0,0,1,0,0,0,1 @ F,0,0,1,0,0,0,1 @ F,0,0,1,0,0,0,1 @ F,0,0,1,0,1.8024533,0,1 @ F,0,0,1,0,2.4238919,0,1 @ F,0,0,1,0,0,0,1 @ F,0,0,1,0,0,0,1"
       radius="0"
       unit="px"
       method="auto"
       mode="F"
       chamfer_steps="1"
       flexible="false"
       use_knot_distance="true"
       apply_no_radius="true"
       apply_with_radius="true"
       only_selected="false"
       hide_knots="false" />
    <inkscape:path-effect
       effect="fillet_chamfer"
       id="path-effect20"
       is_visible="true"
       lpeversion="1"
       nodesatellites_param="F,0,0,1,0,3.3858244,0,1 @ F,0,0,1,0,0,0,1 @ F,0,0,1,0,0,0,1 @ F,0,0,1,0,0,0,1 @ F,0,0,1,0,3.3859034,0,1 @ F,0,0,1,0,0,0,1 @ F,0,0,1,0,0,0,1 @ F,0,0,1,0,0,0,1"
       radius="0"
       unit="px"
       method="auto"
       mode="F"
       chamfer_steps="1"
       flexible="false"
       use_knot_distance="true"
       apply_no_radius="true"
       apply_with_radius="true"
       only_selected="false"
       hide_knots="false" />
    <inkscape:path-effect
       effect="fillet_chamfer"
       id="path-effect19"
       is_visible="true"
       lpeversion="1"
       nodesatellites_param="F,0,0,1,0,1.1147286,0,1 @ F,0,0,1,0,1.3819108,0,1 @ F,0,0,1,0,0,0,1 @ F,0,0,1,0,0,0,1 @ F,0,0,1,0,1.2589077,0,1 @ F,0,0,1,0,1.2463481,0,1 @ F,0,0,1,0,0,0,1 @ F,0,0,1,0,0,0,1"
       radius="0"
       unit="px"
       method="auto"
       mode="F"
       chamfer_steps="1"
       flexible="false"
       use_knot_distance="true"
       apply_no_radius="true"
       apply_with_radius="true"
       only_selected="false"
       hide_knots="false" />
    <inkscape:path-effect
       effect="fillet_chamfer"
       id="path-effect16"
       is_visible="true"
       lpeversion="1"
       nodesatellites_param="F,0,0,1,0,0,0,1 @ F,0,0,1,0,0,0,1 @ F,0,0,1,0,0,0,1 @ F,0,0,1,0,0,0,1 @ F,0,0,1,0,2.0132304,0,1 @ F,0,0,1,0,1.7562673,0,1 @ F,0,0,1,0,0,0,1 @ F,0,0,1,0,0,0,1 @ F,0,0,1,0,0,0,1 @ F,0,0,1,0,0,0,1"
       radius="0"
       unit="px"
       method="auto"
       mode="F"
       chamfer_steps="1"
       flexible="false"
       use_knot_distance="true"
       apply_no_radius="true"
       apply_with_radius="true"
       only_selected="false"
       hide_knots="false" />
    <inkscape:path-effect
       effect="fillet_chamfer"
       id="path-effect15"
       is_visible="true"
       lpeversion="1"
       nodesatellites_param="F,0,0,1,0,1.1542733,0,1 @ F,0,0,1,0,1.7373753,0,1 @ F,0,0,1,0,1.6362993,0,1"
       radius="0"
       unit="px"
       method="auto"
       mode="F"
       chamfer_steps="1"
       flexible="false"
       use_knot_distance="true"
       apply_no_radius="true"
       apply_with_radius="true"
       only_selected="false"
       hide_knots="false" />
    <inkscape:path-effect
       effect="fillet_chamfer"
       id="path-effect5"
       is_visible="true"
       lpeversion="1"
       nodesatellites_param="F,0,0,1,0,2.0386291,0,1 @ F,0,0,1,0,0,0,1 @ F,0,0,1,0,0,0,1 @ F,0,0,1,0,0,0,1 @ F,0,0,1,0,2.0020258,0,1 @ F,0,0,1,0,0,0,1 @ F,0,0,1,0,0,0,1 @ F,0,0,1,0,0,0,1"
       radius="0"
       unit="px"
       method="auto"
       mode="F"
       chamfer_steps="1"
       flexible="false"
       use_knot_distance="true"
       apply_no_radius="true"
       apply_with_radius="true"
       only_selected="false"
       hide_knots="false" />
    <inkscape:path-effect
       effect="fillet_chamfer"
       id="path-effect4"
       is_visible="true"
       lpeversion="1"
       nodesatellites_param="F,0,0,1,0,0,0,1 @ F,0,0,1,0,0,0,1 @ F,0,0,1,0,0,0,1 @ F,0,0,1,0,0,0,1 @ F,0,0,1,0,0,0,1 @ F,0,0,1,0,0,0,1 @ F,0,0,1,0,0,0,1 @ F,0,0,1,0,0,0,1"
       radius="0"
       unit="px"
       method="auto"
       mode="F"
       chamfer_steps="1"
       flexible="false"
       use_knot_distance="true"
       apply_no_radius="true"
       apply_with_radius="true"
       only_selected="false"
       hide_knots="false" />
    <inkscape:path-effect
       effect="fillet_chamfer"
       id="path-effect10"
       is_visible="true"
       lpeversion="1"
       nodesatellites_param="F,0,0,1,0,0.93938858,0,1 @ F,0,0,1,0,1.1573614,0,1 @ F,0,0,1,0,0.91892868,0,1 @ F,0,0,1,0,0.98433501,0,1 @ F,0,0,1,0,0.91241504,0,1 @ F,0,0,1,0,0.75483223,0,1"
       radius="0"
       unit="px"
       method="auto"
       mode="F"
       chamfer_steps="1"
       flexible="false"
       use_knot_distance="true"
       apply_no_radius="true"
       apply_with_radius="true"
       only_selected="false"
       hide_knots="false" />
  </defs>
  <g
     inkscape:label="Network"
     inkscape:groupmode="layer"
     id="layer1"
     style="display:inline"
     transform="translate(-60.000061)">
    <path
       id="path34"
       style="display:none;fill:#ffffff;fill-opacity:0.5;stroke-width:0.548459"
       d="M 99.67697,3.9117573 63.767714,21.866153 c -0.698905,0.349448 -1.266299,1.26618 -1.266806,2.047578 -2.24e-4,0.346565 -3.84e-4,0.69313 -4.97e-4,1.039695 -4.59e-4,1.406487 1.139905,2.546669 2.546392,2.546669 h 35.253917 a 2.1995628,2.1995628 135.00003 0 0 2.19956,-2.19956 l 3e-5,-19.6438478 A 1.9508833,1.9508833 31.717657 0 0 99.67697,3.9117573 Z"
       sodipodi:nodetypes="ccccc"
       inkscape:label="empty-bar"
       inkscape:original-d="M 102.50031,2.5001058 62.502234,22.498885 c -0.0021,1.66707 -0.0021,3.33414 -0.0021,5.00121 h 40.000146 z"
       inkscape:path-effect="#path-effect35"
       transform="translate(1.0833334e-6)" />
    <path
       id="rect35"
       style="display:none;fill:#ffffff;fill-opacity:1;stroke:none;stroke-width:1.21472;stroke-opacity:0.5"
       d="m 101.0377,17.284811 -1.663022,1.663062 a 0.63044693,0.63044693 179.99999 0 1 -0.891598,0 l -1.662654,-1.662696 a 2.0177368,2.0177368 180 0 0 -2.853548,0 L 93.2852,17.966873 a 2.0178412,2.0178412 89.999996 0 0 0,2.853622 l 1.662654,1.662696 a 0.63047957,0.63047957 90 0 1 0,0.891622 l -1.663019,1.663061 a 2.0178412,2.0178412 90.000004 0 0 0,2.853622 l 0.682043,0.682061 a 2.0177365,2.0177365 0 0 0 2.853548,0 l 1.663018,-1.663061 a 0.63044649,0.63044649 2.0256693e-5 0 1 0.891598,0 l 1.663018,1.663061 a 2.0177362,2.0177362 3.6425308e-5 0 0 2.85354,2e-6 l 0.68169,-0.681698 a 2.0178409,2.0178409 90.000024 0 0 0,-2.853621 l -1.66302,-1.663062 a 0.6304801,0.6304801 90 0 1 0,-0.891622 l 1.66302,-1.663062 a 2.0178424,2.0178424 89.999996 0 0 0,-2.853622 l -0.68205,-0.682061 a 2.0177359,2.0177359 0 0 0 -2.85354,0 z"
       inkscape:path-effect="#path-effect36"
       inkscape:original-d="m 102.46447,15.858 -3.535591,3.535684 -3.535227,-3.535318 -3.535226,3.535318 3.535227,3.535318 -3.535592,3.535683 3.535591,3.535683 3.535591,-3.535683 3.535587,3.535684 3.53523,-3.535318 -3.53559,-3.535684 3.53559,-3.535684 z"
       transform="matrix(1.2060693,0,0,1.2060693,-20.835349,-5.174478)"
       inkscape:label="cross" />
    <path
       id="path25"
       style="display:inline;fill:#ffffff;fill-opacity:0.5;stroke-width:0.548459"
       inkscape:label="segmented-bar"
       d="m 100.4503,3.7020996 c -0.26364,0.01509 -0.521432,0.083846 -0.757572,0.2020549 l -2.799313,1.3993977 c -1.160492,0.580261 -1.893514,1.7664193 -1.893424,3.0638957 V 25.298714 c 9.3e-5,1.215769 0.985647,2.201323 2.201416,2.201416 h 3.056143 c 1.23861,-8.7e-5 2.24267,-1.004153 2.24276,-2.242757 V 5.6389323 c -6e-5,-1.1146401 -0.93716,-2.0000054 -2.05001,-1.9368327 z M 90.014249,8.9147013 c -0.255345,0.014505 -0.505043,0.080974 -0.733806,0.1953369 l -2.546614,1.2733078 c -1.369039,0.684456 -2.23388,2.083646 -2.233973,3.614249 v 11.39362 c 8.3e-5,1.164688 0.944228,2.108833 2.108916,2.108915 h 3.176033 c 1.223547,8.3e-5 2.215451,-0.991822 2.215369,-2.215368 V 10.791073 C 92.000151,9.7112489 91.092337,8.8535151 90.014249,8.9147013 Z M 79.43815,14.209469 c -0.265041,0.015 -0.524232,0.08393 -0.761711,0.202571 l -2.967247,1.483788 a 3.0917472,3.0917472 121.71621 0 0 -1.708953,2.765281 v 7.0767 a 1.7623213,1.7623213 45 0 0 1.762321,1.762321 h 3.654919 c 1.150136,-7.2e-5 2.082488,-0.932424 2.082561,-2.08256 v -9.260417 c -1.51e-4,-1.121007 -0.942692,-2.011341 -2.06189,-1.947684 z M 69.238592,19.130768 63.72438,21.88807 c -0.674946,0.337471 -1.222685,1.222527 -1.223181,1.97714 -2.49e-4,0.378934 -9.5e-4,0.757947 -10e-4,1.136881 -4.2e-4,1.379655 1.118385,2.498039 2.498038,2.498039 h 4.298446 a 1.7032491,1.7032491 134.9999 0 0 1.703249,-1.703255 l -2e-5,-5.57759 a 1.2170208,1.2170208 31.716558 0 0 -1.76132,-1.088517 z"
       transform="translate(1.0833334e-6)"
       inkscape:original-d="m 100.4503,3.7020996 c -0.26364,0.01509 -0.521432,0.083846 -0.757572,0.2020549 l -2.799313,1.3993977 c -1.160492,0.580261 -1.893514,1.7664193 -1.893424,3.0638957 V 25.298714 c 9.3e-5,1.215769 0.985647,2.201323 2.201416,2.201416 h 3.056143 c 1.23861,-8.7e-5 2.24267,-1.004153 2.24276,-2.242757 V 5.6389323 c -6e-5,-1.1146401 -0.93716,-2.0000054 -2.05001,-1.9368327 z M 90.014249,8.9147013 c -0.255345,0.014505 -0.505043,0.080974 -0.733806,0.1953369 l -2.546614,1.2733078 a 4.0410537,4.0410537 0 0 0 -2.233973,3.614249 v 11.39362 a 2.1090653,2.1090653 0 0 0 2.108916,2.108915 h 3.176033 c 1.223547,8.3e-5 2.215451,-0.991822 2.215369,-2.215368 V 10.791073 C 92.000151,9.7112489 91.092337,8.8535151 90.014249,8.9147013 Z M 79.43815,14.209469 a 1.9510955,1.9510955 0 0 0 -0.761711,0.202571 l -4.6762,2.338359 V 27.50013 h 5.41724 a 2.0826922,2.0826922 0 0 0 2.082561,-2.08256 v -9.260417 a 1.9510955,1.9510955 0 0 0 -2.06189,-1.947684 z m -8.438245,4.04058 -7.275525,3.638021 c -0.674946,0.337471 -1.222685,1.222527 -1.223181,1.97714 -2.49e-4,0.378934 -9.5e-4,0.757947 -10e-4,1.136881 -4.2e-4,1.379655 1.118385,2.498039 2.498038,2.498039 h 6.001701 z"
       inkscape:path-effect="#path-effect26" />
    <path
       id="rect1"
       style="display:none;fill:#ffffff;fill-opacity:1;stroke-width:0.548459"
       d="M 99.67697,3.9117573 63.767714,21.866153 c -0.698905,0.349448 -1.266299,1.26618 -1.266806,2.047578 -2.24e-4,0.346565 -3.84e-4,0.69313 -4.97e-4,1.039695 -4.59e-4,1.406487 1.139905,2.546669 2.546392,2.546669 h 35.253917 a 2.1995628,2.1995628 135.00003 0 0 2.19956,-2.19956 l 3e-5,-19.6438478 A 1.9508833,1.9508833 31.717657 0 0 99.67697,3.9117573 Z"
       sodipodi:nodetypes="ccccc"
       inkscape:label="full-bar"
       inkscape:original-d="M 102.50031,2.5001058 62.502234,22.498885 c -0.0021,1.66707 -0.0021,3.33414 -0.0021,5.00121 h 40.000146 z"
       inkscape:path-effect="#path-effect6"
       transform="translate(1.0833334e-6)" />
    <path
       d="M 90.01425,8.9147013 A 1.879427,1.879427 0 0 0 89.280444,9.1100382 L 63.724381,21.88807 c -0.674947,0.337472 -1.223195,1.222526 -1.223697,1.97714 -2.52e-4,0.378934 -3.98e-4,0.757946 -5.17e-4,1.136881 -4.34e-4,1.379656 1.118383,2.498039 2.498039,2.498039 h 24.7866 a 2.215223,2.215223 0 0 0 2.215369,-2.215368 V 10.791073 A 1.879427,1.879427 0 0 0 90.01425,8.9147013 Z"
       style="display:none;stroke-width:0.548459"
       id="path23"
       inkscape:label="75-bit" />
    <path
       d="M 79.438151,14.209469 A 1.9510955,1.9510955 0 0 0 78.67644,14.41204 l -14.952059,7.47603 c -0.674946,0.337471 -1.222685,1.222527 -1.223181,1.97714 -2.49e-4,0.378934 -9.5e-4,0.757947 -10e-4,1.136881 -4.2e-4,1.379655 1.118385,2.498039 2.498039,2.498039 H 79.41748 a 2.0826922,2.0826922 0 0 0 2.082561,-2.08256 v -9.260417 a 1.9510955,1.9510955 0 0 0 -2.06189,-1.947684 z"
       style="display:none;stroke-width:0.548459"
       id="path24"
       inkscape:label="50-bit"
       transform="translate(1.0833334e-6)" />
    <path
       d="m 69.837703,19.003491 a 1.2170208,1.2170208 0 0 0 -0.598929,0.127124 l -5.514393,2.757455 c -0.674945,0.33747 -1.222685,1.222528 -1.223181,1.97714 -2.49e-4,0.378934 -9.83e-4,0.757948 -10e-4,1.136881 -4.2e-4,1.379654 1.118387,2.498039 2.498039,2.498039 h 4.298445 a 1.7032491,1.7032491 0 0 0 1.703255,-1.703255 v -5.577437 a 1.2170208,1.2170208 0 0 0 -1.162203,-1.215947 z"
       style="display:none;stroke-width:0.548459"
       id="path26"
       inkscape:label="25-bit"
       transform="translate(1.0833334e-6)" />
    <path
       d="m 79.438151,14.209469 c -0.26504,0.015 -0.524232,0.08393 -0.761711,0.202571 l -2.96726,1.483631 a 3.0917472,3.0917472 0 0 0 -1.70894,2.765205 v 7.077088 a 1.7623213,1.7623213 0 0 0 1.762166,1.762166 h 3.655074 c 1.150136,-7.2e-5 2.082488,-0.932425 2.082561,-2.08256 v -9.260417 c -1.52e-4,-1.121005 -0.942693,-2.011342 -2.06189,-1.947684 z"
       style="display:none;fill:#ffffff;fill-opacity:0.5;stroke-width:0.548459"
       id="path28"
       inkscape:label="2nd-bit"
       transform="translate(1.0833334e-6)" />
    <path
       d="m 90.01425,8.9147013 c -0.255345,0.014505 -0.505043,0.080974 -0.733806,0.1953369 L 86.73383,10.383346 c -1.369037,0.684455 -2.233879,2.083647 -2.233972,3.614249 v 11.39362 c 8.3e-5,1.164686 0.944228,2.108833 2.108915,2.108915 h 3.176033 c 1.223546,8.3e-5 2.215451,-0.991824 2.215369,-2.215368 V 10.791073 C 92.000152,9.7112496 91.092337,8.8535152 90.01425,8.9147013 Z"
       style="display:none;fill:#ffffff;fill-opacity:0.5;stroke-width:0.548459"
       id="path30"
       inkscape:label="3rd-bit"
       transform="translate(1.0833334e-6)" />
    <path
       d="m 100.45031,3.7020996 c -0.26364,0.01509 -0.521442,0.083846 -0.757581,0.2020549 L 96.893416,5.3035522 C 95.732925,5.8838127 94.999902,7.0699728 94.999992,8.3674479 V 25.298714 c 9.3e-5,1.215768 0.985648,2.201323 2.201416,2.201416 h 3.056142 c 1.23861,-8.7e-5 2.24267,-1.004154 2.24276,-2.242757 V 5.6389323 c -6e-5,-1.114639 -0.93716,-2.0000053 -2.05,-1.9368327 z"
       style="display:none;fill:#ffffff;fill-opacity:0.5;stroke:none;stroke-width:0.548459;stroke-opacity:0.5"
       id="path32"
       inkscape:label="4th-bit"
       transform="translate(1.0833334e-6)" />
    <path
       id="path4"
       style="display:inline;fill:#ffffff;fill-opacity:1;stroke-width:0.858255"
       d="m 104.68489,15.375066 c -0.31418,-0.317272 -0.89904,-0.362208 -1.27961,-0.03678 -0.2667,0.228074 -0.5691,0.509916 -0.88099,0.813805 -2.985162,-1.878916 -6.980128,-1.449309 -9.486404,1.213193 -2.842629,3.019665 -2.693011,7.766347 0.3342,10.601904 3.027106,2.835627 7.785494,2.686381 10.628034,-0.333354 1.15278,-1.230626 1.84864,-2.802792 1.99583,-4.457823 0.0593,-0.663824 -0.53115,-1.166604 -1.19813,-1.117247 -0.57697,0.0427 -0.9996,0.552398 -1.07415,1.128639 -0.13957,1.078743 -0.61305,2.09723 -1.36793,2.905931 -1.98974,2.113977 -5.32075,2.218535 -7.439801,0.233526 -2.118983,-1.984896 -2.223698,-5.307541 -0.23385,-7.421289 1.646986,-1.749616 4.212317,-2.121246 6.249131,-1.072198 -0.17003,0.195388 -0.33165,0.385864 -0.4707,0.560174 -0.40808,0.511581 -0.20453,1.319758 0.37912,1.505394 1.18501,0.376904 3.14926,0.765699 4.23343,0.824377 0.41333,0.02237 0.84777,-0.429839 0.80788,-0.84077 -0.1065,-1.097133 -0.5943,-3.088431 -1.02778,-4.245684 -0.0375,-0.101028 -0.0958,-0.188584 -0.16823,-0.261801 z"
       inkscape:label="riavvio" />
  </g>
</svg>
