<?xml version="1.0" encoding="UTF-8" standalone="no"?>
<!-- Created with Inkscape (http://www.inkscape.org/) -->

<svg
   width="1000"
   height="1000"
   viewBox="0 0 999.99997 999.99997"
   version="1.1"
   id="svg1"
   inkscape:version="1.3.2 (091e20ef0f, 2023-11-25)"
   sodipodi:docname="riavvio.svg"
   inkscape:export-filename="batteria.png"
   inkscape:export-xdpi="96"
   inkscape:export-ydpi="96"
   xmlns:inkscape="http://www.inkscape.org/namespaces/inkscape"
   xmlns:sodipodi="http://sodipodi.sourceforge.net/DTD/sodipodi-0.dtd"
   xmlns="http://www.w3.org/2000/svg"
   xmlns:svg="http://www.w3.org/2000/svg">
  <sodipodi:namedview
     id="namedview1"
     pagecolor="#ffffff"
     bordercolor="#000000"
     borderopacity="0.25"
     inkscape:showpageshadow="2"
     inkscape:pageopacity="0.0"
     inkscape:pagecheckerboard="true"
     inkscape:deskcolor="#d1d1d1"
     inkscape:document-units="px"
     inkscape:zoom="0.5"
     inkscape:cx="426"
     inkscape:cy="480"
     inkscape:window-width="1440"
     inkscape:window-height="862"
     inkscape:window-x="0"
     inkscape:window-y="0"
     inkscape:window-maximized="1"
     inkscape:current-layer="layer4"
     shape-rendering="crispEdges" />
  <defs
     id="defs1" />
  <g
     inkscape:groupmode="layer"
     id="layer4"
     inkscape:label="Riavvio">
    <path
       id="path4"
       style="display:inline;fill:#ffffff;fill-opacity:1;stroke-width:47.6806"
       d="m 843.60369,104.16986 c -17.45206,-17.626209 -49.94665,-20.122657 -71.08948,-2.0432 -14.81772,12.67078 -31.61838,28.32866 -48.94447,45.21142 C 557.727,42.953866 335.7839,66.82092 196.54586,214.73766 38.621959,382.49674 46.934022,646.20117 215.11119,803.73203 383.28458,961.26684 647.64,952.97534 805.5598,785.21241 869.60311,716.84434 908.26236,629.50177 916.43926,537.55564 c 3.27966,-36.87908 -29.50913,-64.8113 -66.56274,-62.06927 -32.05229,2.372 -55.53315,30.68879 -59.67511,62.70217 -7.75377,59.93015 -34.05952,116.51276 -75.99637,161.44054 C 603.66285,817.07216 418.60666,822.88099 300.8814,712.60274 183.15964,602.33078 177.34238,417.73949 287.8882,300.30906 c 91.49994,-97.2008 234.01832,-117.8469 347.17497,-59.5665 -9.44506,10.85495 -18.42346,21.43688 -26.14785,31.1208 -22.67019,28.42113 -11.36417,73.31983 21.06112,83.63296 65.83417,20.93909 174.95946,42.53882 235.19147,45.79868 22.96292,1.24267 47.09841,-23.87996 44.88218,-46.70941 -5.9173,-60.95183 -33.01505,-171.57948 -57.09951,-235.87125 -2.10253,-5.61261 -5.3195,-10.47688 -9.34689,-14.54448 z"
       inkscape:label="riavvio" />
  </g>
</svg>
